<svg xmlns="http://www.w3.org/2000/svg" xmlns:xlink="http://www.w3.org/1999/xlink" width="21" height="12" viewBox="0 0 21 12" version="1.1">
  <g stroke="none" stroke-width="1" fill="none" fill-rule="evenodd">
    <g transform="translate(-552.000000, -1928.000000)" fill="#000000">
      <path d="M556.22 1940C555.79 1940 555.44 1939.66 555.44 1939.24L555.44 1933.02 552 1933.02 556.67 1928.05 561.35 1933.02 557.9 1933.02 557.9 1937.6 561.6 1937.6 564.03 1940 556.22 1940 556.22 1940ZM573 1934.98L569.56 1934.98 569.56 1928.76C569.56 1928.34 569.21 1928 568.78 1928L560.97 1928 563.4 1930.4 567.09 1930.4 567.09 1934.98 563.65 1934.98 568.33 1939.95 573 1934.98 573 1934.98Z"/>
    </g>
  </g>
</svg>
